<mxfile host="app.diagrams.net" modified="2023-09-30T10:06:37.370Z" agent="Mozilla/5.0 (Macintosh; Intel Mac OS X 10_15_7) AppleWebKit/537.36 (KHTML, like Gecko) Chrome/116.0.0.0 Safari/537.36" etag="f5RGSe2-OViRqB7APIn7" version="21.7.4" type="github">
  <diagram id="pm73N6I4ifg4NlOD--yJ" name="第 1 页">
    <mxGraphModel dx="1793" dy="1009" grid="0" gridSize="10" guides="1" tooltips="1" connect="1" arrows="1" fold="1" page="1" pageScale="1" pageWidth="800" pageHeight="450" math="0" shadow="0">
      <root>
        <mxCell id="0" />
        <mxCell id="1" parent="0" />
        <mxCell id="qANSEEMcXUb1CBoxWqj7-4" value="" style="rounded=1;whiteSpace=wrap;html=1;arcSize=2;strokeWidth=5;fillColor=#f9f9f9;" parent="1" vertex="1">
          <mxGeometry x="-790" y="7" width="779.07" height="436.08" as="geometry" />
        </mxCell>
        <mxCell id="qANSEEMcXUb1CBoxWqj7-5" value="" style="rounded=1;whiteSpace=wrap;html=1;arcSize=0;strokeWidth=5;fillColor=#000000;strokeColor=#4D4D4D;" parent="1" vertex="1">
          <mxGeometry x="-787" y="77" width="773" height="361" as="geometry" />
        </mxCell>
        <mxCell id="yL1aq7DCFhl8T2kSVwG6-1" value="" style="ellipse;whiteSpace=wrap;html=1;aspect=fixed;fillColor=#09FFA7;strokeColor=#0CCC7A;" parent="1" vertex="1">
          <mxGeometry x="-638" y="11" width="58" height="58" as="geometry" />
        </mxCell>
        <mxCell id="yL1aq7DCFhl8T2kSVwG6-4" value="" style="ellipse;whiteSpace=wrap;html=1;aspect=fixed;fillColor=#FEC434;strokeColor=#D2A621;" parent="1" vertex="1">
          <mxGeometry x="-712" y="10.969999999999999" width="58" height="58" as="geometry" />
        </mxCell>
        <mxCell id="yL1aq7DCFhl8T2kSVwG6-5" value="" style="endArrow=none;html=1;rounded=0;strokeWidth=7;fontSize=51;fontColor=#02a04f;strokeColor=#995501;" parent="1" edge="1">
          <mxGeometry width="50" height="50" relative="1" as="geometry">
            <mxPoint x="-701" y="42.97" as="sourcePoint" />
            <mxPoint x="-664" y="42.97" as="targetPoint" />
          </mxGeometry>
        </mxCell>
        <mxCell id="yL1aq7DCFhl8T2kSVwG6-6" value="" style="ellipse;whiteSpace=wrap;html=1;aspect=fixed;fillColor=#FE6C68;strokeColor=#A95B56;" parent="1" vertex="1">
          <mxGeometry x="-786" y="10.969999999999999" width="58" height="58" as="geometry" />
        </mxCell>
        <mxCell id="yL1aq7DCFhl8T2kSVwG6-7" value="" style="shape=image;verticalLabelPosition=bottom;labelBackgroundColor=default;verticalAlign=top;aspect=fixed;imageAspect=0;image=data:image/svg+xml,PHN2ZyB4bWxuczp4bGluaz0iaHR0cDovL3d3dy53My5vcmcvMTk5OS94bGluayIgeG1sbnM9Imh0dHA6Ly93d3cudzMub3JnLzIwMDAvc3ZnIiBoZWlnaHQ9IjIwMCIgd2lkdGg9IjIwMCIgdmVyc2lvbj0iMS4xIiB2aWV3Qm94PSIwIDAgMTAyNCAxMDI0IiBjbGFzcz0iaWNvbiI+PHBhdGggZmlsbD0iIzdmMDAwMCIgZD0iTTYzMi4xMTc5NzggNTEzLjgzMzM1NmwzNjEuODA1ODEyIDM2MS43MzUyOThhODUuNDYyNjA4IDg1LjQ2MjYwOCAwIDEgMS0xMjEuMDAxNTE1IDEyMC43ODk5NzRMNTExLjExNjQ2MyA2MzQuNTUyODE2IDE0Ni45MTMxODYgOTk4Ljc1NjA5NGE4Ni4wMjY3MTggODYuMDI2NzE4IDAgMCAxLTEyMS43MDY2NTItMTIxLjcwNjY1MkwzODkuNDgwMzI1IDUxMi43NzU2NTEgMjcuNjc0NTEzIDE1MC45Njk4MzlBODUuMzkyMDk1IDg1LjM5MjA5NSAwIDAgMSAxNDguMzkzOTczIDMwLjI1MDM3OUw1MTAuMTk5Nzg1IDM5Mi4wNTYxOTFsMzY2LjY3MTI1OC0zNjYuNjcxMjU4YTg2LjAyNjcxOCA4Ni4wMjY3MTggMCAwIDEgMTIxLjcwNjY1MiAxMjEuNzA2NjUyeiIvPjwvc3ZnPg==;" parent="1" vertex="1">
          <mxGeometry x="-775.72" y="21.289999999999992" width="37.43" height="37.43" as="geometry" />
        </mxCell>
        <mxCell id="yL1aq7DCFhl8T2kSVwG6-10" value="" style="group;rotation=30;" parent="1" vertex="1" connectable="0">
          <mxGeometry x="-635.5" y="25.640000000000015" width="53" height="30.659999999999997" as="geometry" />
        </mxCell>
        <mxCell id="yL1aq7DCFhl8T2kSVwG6-8" value="" style="triangle;whiteSpace=wrap;html=1;strokeColor=none;fillColor=#02A04F;rounded=1;arcSize=12;rotation=30;" parent="yL1aq7DCFhl8T2kSVwG6-10" vertex="1">
          <mxGeometry x="27" y="7" width="23" height="30.66" as="geometry" />
        </mxCell>
        <mxCell id="yL1aq7DCFhl8T2kSVwG6-9" value="" style="triangle;whiteSpace=wrap;html=1;strokeColor=none;fillColor=#02A04F;rounded=1;arcSize=12;flipH=1;rotation=30;" parent="yL1aq7DCFhl8T2kSVwG6-10" vertex="1">
          <mxGeometry x="3" y="-7" width="23" height="30.66" as="geometry" />
        </mxCell>
        <mxCell id="yL1aq7DCFhl8T2kSVwG6-16" value="&lt;font color=&quot;#4d4d4d&quot; size=&quot;1&quot; style=&quot;&quot;&gt;&lt;b style=&quot;font-size: 41px;&quot;&gt;小白debug&lt;/b&gt;&lt;/font&gt;" style="text;html=1;strokeColor=none;fillColor=none;align=center;verticalAlign=middle;whiteSpace=wrap;rounded=0;fontColor=#6ef1b5;" parent="1" vertex="1">
          <mxGeometry x="-237" y="11.969999999999999" width="213" height="58" as="geometry" />
        </mxCell>
        <mxCell id="XABMTuyTcETFJIN-x9gi-1" value="" style="shape=image;verticalLabelPosition=bottom;labelBackgroundColor=default;verticalAlign=top;aspect=fixed;imageAspect=0;image=data:image/jpeg,/9j/4AAQSkZJRgABAQAAAQABAAD/2wBDAAMCAgMCAgMDAwMEAwMEBQgFBQQEBQoHBwYIDAoMDAsKCwsNDhIQDQ4RDgsLEBYQERMUFRUVDA8XGBYUGBIUFRT/2wBDAQMEBAUEBQkFBQkUDQsNFBQUFBQUFBQUFBQUFBQUFBQUFBQUFBQUFBQUFBQUFBQUFBQUFBQUFBQUFBQUFBQUFBT/wAARCAFYAVgDASIAAhEBAxEB/8QAHwAAAQUBAQEBAQEAAAAAAAAAAAECAwQFBgcICQoL/8QAtRAAAgEDAwIEAwUFBAQAAAF9AQIDAAQRBRIhMUEGE1FhByJxFDKBkaEII0KxwRVS0fAkM2JyggkKFhcYGRolJicoKSo0NTY3ODk6Q0RFRkdISUpTVFVWV1hZWmNkZWZnaGlqc3R1dnd4eXqDhIWGh4iJipKTlJWWl5iZmqKjpKWmp6ipqrKztLW2t7i5usLDxMXGx8jJytLT1NXW19jZ2uHi4+Tl5ufo6erx8vP09fb3+Pn6/8QAHwEAAwEBAQEBAQEBAQAAAAAAAAECAwQFBgcICQoL/8QAtREAAgECBAQDBAcFBAQAAQJ3AAECAxEEBSExBhJBUQdhcRMiMoEIFEKRobHBCSMzUvAVYnLRChYkNOEl8RcYGRomJygpKjU2Nzg5OkNERUZHSElKU1RVVldYWVpjZGVmZ2hpanN0dXZ3eHl6goOEhYaHiImKkpOUlZaXmJmaoqOkpaanqKmqsrO0tba3uLm6wsPExcbHyMnK0tPU1dbX2Nna4uPk5ebn6Onq8vP09fb3+Pn6/9oADAMBAAIRAxEAPwD9U6KKKACiiigAooooAKKKKACiiigAooooAKKKKACiiigAooooAKKKKACiiigAooooAKKKKACiiigAooooAKKKKACiiigAooooAKKKKACiiigAooooAKKKKACiiigBpbBpQSQDigjNfysE5NAH9U9FfysUUAf1T0V/KxRQB/VPQc1/KxQOtAH9UxbFKCSAcUYzX8rBOTQB/VOSQCcUgbNfysg4Nf1T4xQAm4g4x+NKDkV/Kzmv6pgMUALRRRQA0tg0oJIBxQRmv5WCcmgD+qcnApNxJxj8aUjNfys5oA/qmBzS0g6UtABRRRQAUUUUAITgUgYk4xSkZr+VgmgD+qYsQcYpQciv5WAa/qnAxQAE4FIGJOMUpGa/lYJoA/qnor+ViigD+qeiv5WKKAP6p6K/lYooA/qoooooAKKKKACiiigBO9fysV/VP3r+VigD+qcnAyaAc0EZFfys546UAf1T0V/Kxn2oz7UAf1T1/Kv6V/VRX8q/pQB/VPnGK/lYIwa/qlI6Z9KVeg5/OgD+VkDJr+qfOaCCQRmkC4oA/laxX9UwOaTaSc5/ClAwKAAnAr+VnGMUA4PSlJz+FAH9UuQBzQDkU08889Olfytnr0oATrX9U/ehunWv5Wic9qAP6pScV/KwRinZwMYppOTQAAZNGD6V/VM3Q84+lfyt54x29aAG0V/VOM4ooA/lYAya/qnznNDdDzimjj8aAP5W8ZzX9UwORX8rOcZoLAnpQB/VPX8q/pX9VFfyr+lAH9U+QBzQDkUhXJHPav5Wsj0oA/qnor+VjPtQCM9KAP6puuK/lYr+qcCv5WKAP6qKKKKACiiigAooooATvX8rFf1T96/lYoA/qor+VftX9VFfyr9qACiiigD+qiv5V/Sv6qK/lX9KAP6psZxX8rJJNf1TjtX8rFAH9U9FfysUUAf1T0V/KxRQB/VMeATigHca/lZBwa/qnAxQAjcHmheg4/OlIzX8rBOTQB/VO3Q8Zpo5/Cv5WgcGv6p8YzQB/KzjOaCoB60Zxmv6pgMCgAIzSEYp1IelAAM0V/KwetFAH9UzdDxn6V/K2eBnimg4NBJNAATmiiigD+qiv5V/Sv6qK/lX9KAP6px2r+Viv6px2r+VigAoHWigdaAP6px2r+Viv6px2r+VigD+qiiiigAooooAKKKKAE71/KxX9U5OK/lYIIoA/qoor+Vj8KPwoA/qnor+Vj8KPwoA/qmJwK/lZxjFAOD0pSc/hQB/VKO1fysV/VNmv5WSCKADrX9U+aCCR1r+VosDjigD+qXcPWgHIppHfn6V/K2evSgBOtf1T560h6da/lcPOOKAG+tf1TdaaRX8rZPPSgBAMmjB9K/qmbp1/Kv5W89u2etADcUEYNf1S4Jwc9q/laJyaADrX9U+aCCR1r+VrINAH9Uu4etAORTCOe/0r+VwnnpQAgGTRg+lf1TN0POPpX8reeMdvWgBuKCMGv6pTnr+lfytkc9PyoA/qnr+Vj0r+qYnFfys9KAP6ph0pa/lYP0o/CgD+qeiv5WPwo/CgD+qYnFfysEYp2eMYpp5PSgD+qiiiigAooooAKKKKAEIzQABS0UAJig8UtIelADc4OMfjThyOlfys5r+qYDFAAeB0pucnGPxpxGa/lZzQB/VKBnrSgAUDpS0AITgV/K1gYB96/qlIyMGjAoAaT6ilXoOPzpcDp2r+VgnJoAUcnr+df1Sd+hr+VoHBozk0AO98009a/qmxnFfysk5oAM0uSTzSUDrQB/VMWwRx2r+VrA9a/qmwCOaAMCgAJwK/laxxnNf1SkZGDQBigD+Voeuaaetf1TkZr+VgnNAH9U55pNtfys0UAf1St1xjrTgOOlfysA1/VOBigAIzSYxTqQ9KAAfQUY9hX8rB60UAf1THgE4pA2e1fytA4Nf1T4xQAD6CjHsK/lYPWigD+qiiiigAooooAKKKKAEJA60A5FIy5PXtX8rWR6UAf1TE4FG4etfysg89K/qjA57/SgB5Ir+VgjFOJA4ppOTQB/VOTgZNGRQeR1r+VrsBQB/VLuHrQDkU0jv+lfytk89KAEAyaMYNKBz0/Ov6pACTn9DQA7IAoByKaw5/pX8rZ69KAP6p6TpQTikJyKAFyKAcjIr+VrsRX9Uo4HX86AP5WK/qnPev5WME1/VN1oA/lZxk0EYNf1SkEHP6Cv5WyOen5UAIBk1/VPkde1DdDzimgUAOzX8rHSnjjNf1Rjp1oA/lZAya/qnBzSN0PP5ULweKAFJA60A5FNbk96/lbPXpQB/VPX8q/av6pycV/KyRQAnav6qK/lYA4r+qbNAC0h6UtIRmgD+VjGTQRg1/VNtOc5r+VknJoA/qoooooAKKKKACiiigBO9fysV/VP3r+VigAHWne9NBxX9U+MUAfytbc0hUA9aM1/VMBgUAfysjk9fzr+qTua/laBwaM0AKTg0lHWigD+qZuh4/KhTzxX8rIODX9U4GKAEY880L0HH50pGa/lYJyaAP6p26dK/lbIAxTOlf1T4oAQDNfys5r+qfpiv5WKAP6pm6Hj8qFPPFfysg4Nf1TgYoARjzzQvQcfnSkZr+VgnJoA/qnIzX8rI61/VPX8q/TFAH9UvcV/K2eD1/KkzQTk0AGSK/qmxX8rNf1TnvQB/K0Onbiv6pByOn51/Kzkg0E5NAH9U56etNB5xinEZr+VnNAH9UuM1/Kzmv6px2r+VigD+qeg5r+VigdaAP6pwc1/KxX9U47V/KxQB/VRRRRQAUUUUAFFFFACd6/lYr+qfvX8rFAH9U5OK/lYIr+qcjIpApBzmgD+VkV/VP1prA5r+Vs9elAH9U9FfysZ9qDx2oA/qnor+Vj8KPwoA/qmJwK/lZIPSgMAelLuzigBuK/qn603aTjntX8rZI9KAEHUV9YfAb/gmj8Z/j54ftdftNOsvC2g3aeZa33iGZ4ftCFVZXSNUZyjBsq23B+nJ/fYjtmuRvb2fVrqdRPJDaRSGJVhbaZCDhiWHPXgAf/qQH5N/8OTvikf+Z68Hj6m6/wDjNH/Dk34pf9D14P8Azuv/AIzX6uf2bGP+W13/AOBk3/xVH9nJ/wA9rv8A8DJf/iqLjsdvkUjHI61xP9nR/wDPa7/8DJf/AIqj+zY/+e13/wCBkv8A8VRcLH5Sf8OUPikD/wAjz4Qx9br/AOM1+yK4AAzXE/2bH/z2u/8AwMl/+Ko/s2P/AJ7Xf/gZL/8AFUXCx2+RSFhjrXEnTYyP9dd/+Bkv/wAVTLa5uPDt3albme50+aVYZYbhzKULHCsrEk/eIyDkc9qLhY/mSxk0EYODX9UakBsfpX8rp5PSmIQDNf1Tgiv5WAcGnAg8UAf1S9aWmg4pQc0ABOBX8rJB6UA4PSlznAoAQCv6pgc03Gec/hThwOtAH8rHWv6p89aG6da/lbJz2oAZjJoIwa/ql79TX8rZ5PT8qAP6p6KKKACiiigAooooAazYPTtX8rWB61/VMQD1oAwKAAkgE4pA2a/lZBwa/qnxigBMZ6ilAx2r+Vg9aKAAdf8AGv6pQTnH6mv5WgcGjOTQB/VOOaMUDpS0AfysBQT1oK4xX9UxGRX8rOc4oA/qmHav5WK/qnHav5WKAP6pM/vce2a4rTP9RN/18z/+jXrtP+Xj/gJ/mK4vTP8AUTf9fM//AKNepY0T3FwlpBJPKwSKJS7segAGSa+dtC+Nnj++Fp4ng02113w5fj7SPD1tamHULe1ckwyJM0myR9pVmRlXqcNxg+o/GfXbnTfBr6ZpzRLq+uyf2VZmYFkR5FbdIQOSEQO2OM4AyKwIINI+HvhJYpLtLO10yyiie7lA3BEUIrHHXoOB37V8/meMq4eUI0Xr1Xkd+HpRmm5olHxn8QJH58nwy177P1Iju7NpR/wDzv61wuiftR6vrfxQstHfRLPR9MmvksDpWpNJHrAV9wW6K42CMkAbRu4OdwPy11Xhf4r+GPGGt3mj6XqDXGoWUXmXCS28kWwZUc7wMn5gcDoCPUVwvxl8eeC3+wvdanb6T4k07USmi6pfWknlJfKu7YJduCCDhwD90nOO3LSzHEzqck429Eazw9OMeZM+oP5UVgeA/F8PjrwtZaxFC9rJMClxayfft51JWWJvdXDD8K36+pvfU831Cqmp8wQ/9fMH/o1Kt1U1P/UQ/wDXzB/6NSmgPyl/4LXg/wDC/PAoHP8AxTI/9Kp6/ZEcjpVNwDqSZH/LP+pr+WU81RAuPegADvX9U9IelAH8rJr+qYDFfys+tf1T0AJj2FIfpX8rNA60AKevWj8a/qmHSloAQ80hGBX8rNA60AO7E5Ff1SjkdPzoxkUAYGBQAtFFFABRRRQAUUUUAJ3r+Viv6p+9fysUAHWv6p80EEjrX8rWQaAP6peuK/lYr+qYHBr+VnFAB1r+qfPWhunWv5WyQe1ADD1ooPNGKAP6pycCv5WcUA89KUmgD+qXPSv5WOlPBAr+qMdOtAH42/8ABEv/AJL746/7Fk/+lUFfq3pvEE3/AF8z/wDo16/KT/giZ/yXzx1/2LJ/9KoK/VrTWHkzDI/4+Z//AEa9Sxo86+Nq/wBnX/gnXpuNP0zVWW6cn5YlmhkhV29AHdQT/tV1Gn+C9N8dWN/aapGZdPbEUiBihYg5BDDkYPIIOQelfAf7cHxM1rX/ABzrGi3N5PJ4dsZvsUGlJKVgllEYYNIo++SxPXIGBx3r6j+Euma54V8DaLoyeNtQivbGNYJLibypnuX2jAJlVjhTkAA5wcZ4FfPY+FGnXp4ir9x30XOUJQgUv2g/2MPDuteDvFUPhXw/Z21/4khZtW1+81W5S6hkVkdJuEkMwBUlk+UthefToPgz+yp4LHgPw9F4r8CaHcT6THAbC5+1y3jzMkaj7Q5kjjw7EdNmQAAc9B2C/Ez4g6Wggbw9omuJG2De/wBqyWckyZ6+T9nkVWA/28E+mePGPjn+3H4e0yO88IXOmarpepieOC/ezuo2eCHILhWRwwJU4ydvDEg8V6kMRRrJunqcsqdSG+h678KTbWlx491OIrZ6FPrkslsZJBsUJFHHMwOcAGVJPyNb2h/EvQ/EWrXdlZXDOltDHMbx18u3kDltoR2Pz/dzkDGCDnkV4r4Y1n4deB9Etbu5SaKDUvLvNE8FIjSSIu0bZBZj7rOfmywwDg8HJrcufD2j3ttc6t4n03Sp7+b/AEm7ubuCN1j/ANkM4+6gAUewzxmipiFSivd1fQ3pUHVdrnuUd/bSjKXMLD1EgqLUXV7eEqwYfaYOh/6apXyPrjaH4lmfSvB/g3SJXxh7+fTolRARkEZQ7c8Hcw6EEK2c16/+z34Ps/Bnw2EFuY/OuNY8ycxII42dbhY8on8Iwg4q6Nb2js1YVWj7JXvc+hX/AOQkn+5/U1/LKRg1/U0//IRXjjZ/U1cHAxmuw4xelfys+lA69K/qkUHNADh2r+Viv6pulfyskEUAAGTRjBoBwa/qlwQc0AOziv5WCMGv6pcZpRwAM0Afys0DrRilAIoA/qmziv5WCMU72pp60Af1UUUUUAFFFFABRRRQAnev5WK/qn71/KxQB/VOSQOlfytYA703pX9U+OtAH8rfbtX9UY5HT86/layQaQnJoA/qnPT1pq9cYpxGa/lYJoA/qmJwcYpRyOlfysA1/VOBigD+VkDnrX9UYPPf608jIo2j0oA/lazjocUn41/VPRQB+Nf/AARP+X4/eOcd/DJ/9KoK/TKInzbzn/l8uP8A0c9euY/f/wDAT/SvI4f9def9flx/6OepY0fAn7Wfwx8VQePb/UrTQL3UdOk1GPUkubePdGRhR5bHsd3GD7eteiaf4m1b4t6H9rOjRT+GbrBhht5GMsgB6vJ5LqD6bBx2Y17b+0jqc+m/BnxO9pxdJbB45cn9wQ6kSf8AAcbuh+709fN/2WEx8GNJ+eKUtPcO0kMnmoxMrEkNgZySecCvMxqjZTauehhFzS5bmf4g8LxeKNCg0fUfCusXFjAVMaN4hviQV+6eYjkj19hXIXHwN0uUSBPDmqR+c26Z2v2lkl5JO6R7QuTyeSc819NYowK8qFdw+FWPTdBS3PKdI1qL4a6XqGoW3glLfZE1xeahcXk8txKFUlmkka3LNwM9TWhpOleIfiNDZaj4mWTSLZlWddKVgTG/XAxwNv8AeOWPX930rc+K65+F/i/j/mEXf/olq3bnUbXSNKa8vbhLW1hiDySythVAHUn/AD1odRyV7a3LVNR0voSabpdrpFqttZwLBCp+6vcnqSepJPUnkmtL4ZkP4ehKkMv9tN8w5z/plYWmeHtU8dyiW9E+i+G+og5ju73/AHjwYo8dvvNn+EDn0Ky0200i20uzsbaK0tILm2jighQIiKJUwAB0Ferg6MoXnPqeVi60Z2jHofmt/wAFscf8L88C+v8AwjIz/wCBU9fnZj3r+pp+dST/AK59/qau16p5ohHHSkU84xSkZr+VgmgD+qcjPagDHav5WKKAFAHrX9UmSfanda/lYJoAU8UmaOtFAH9U5HHSv5Wu2eOa/qlIyMGjGBQAwn681/K4Rz1o9a/qm6UALRRRQAUUUUAFFFFACd6/lYr+qfvX8rFAABk1/VPkde1BBIIzSbcUALkUA5GRX8rWe3v1r+qUHjrQB/KwBmv6pwRX8rA607pxQB/VL1xX8rFf1TLX8rNAABk1/VPnOaCCQRmkxtzQB/KyetFLjJpKAP6oj/r/APgJ/nXkcPM153/0y5/9HPXrM8ogkRmOFPBNefeIPD11pOoXM0FvLdWU7mUGBd7RseWBUc4zyCM9fblMaPLviVpt3rnhnWbK1jEl3LCRFGWC7iOQMngZxXnfgvWNS8O6VPaXXhHW4pTdTS7IYI3XazkjBV8d697Ylzk2N6T72E3/AMRQMjpY3v8A4Azf/E1jVpRqx5ZG1Oq6T5onki+Mb1zhfCXiA/W2Qf8As9OHizUj08HeIWPtbx//ABdet+Y//Plff+AM3/xNL5sh/wCXO/8A/AKb/wCJrk+o0fM6frtQ8J8b32veI/Bev6VaeC9dF1f6fPaxebHEq73jZVyd/AyRzXeeFvh9PNNa6r4mdLm/hIe30+Nt1taEdDz/AKyT/bI47Ada7kSyD/lzv/8AwCm/+Io82T/nzv8A/wAApv8A4mtqeHp03dIyqYidRWbJPpUcn+us+f8Al8t//RyUebJ/z533/gFN/wDE1s+HvD13quoW009vJa2UEglJnXa0jKcqAp5HODk+ldVjmZ3bc6kn+5/U1/LLX9SdndrfX0k0Z3RKNqsOh9/ev5bSOaokTrX9U+aQ9OtfyuEjFAH9Um4etAORTduTnP4V/K3kelAH9U9fyself1T1/KwKAP6ph0pa/lZ79KTPtQB/VMTgV/KzigHB6Uuc0Af1SjpS1/KwSB2oz7UAf1T0UUUAFFFFABRRRQAnev5WK/qn71/KxQB/VRSE8UtJ1oA/la6Hg4pPxr+qeigD+VgDnrX9UYJNP61/Kz6UAf1TCv5WK/qnHav5WKAP6qKQ0tIelADCSK/lcI560etf1TdKAIbuETwlSM5Fc1dy6vpZP2R0mj7RzAkD8QQa/mDBxX9UxRTnIB+tAH43j/gtj8UQD/xQ3g//AL5uv/j1If8Agtn8Ugcf8IL4Q/75uv8A49X51561/VH9ni/55p/3yKAOA/4THxT/ANA+x/75f/4qvyvP/BbP4pjP/FC+EPyuv/j1fnVmv6oxbxD/AJZJ/wB8igD8ch/wWz+KRGf+EF8If983X/x6v1PPjDxSDj7BY/8AfL//ABVd/wCREP8Almo+go+zxD/lmn/fIoA4BfF/iknBsLH/AL4f/wCKqykmu66Al46W8B4aO3QqCPQkknHtX8yNFAH9TOmWK2cCoBxV7GO1fysUUAKOvWv6pAee9OIyKMACgBu4g9K/lbIHrR61/VN0oACSBnGa/laxgA00HBoySaAP6pTwe/Pev5WyOetf1TYBHNAGBQAHgdKbnJ+nenEZr+VkmgBduaQqAetGT1r+qYDAoAWiiigAooooAKKKKAEJA60A5FNYc59ulfytnr0oA/qnpD0ozQeaAP5WD1or+qcfUUZ9xQAE4GTRnIoPI61/K12AwKAE9a/qm600iv5WyeelAH9UxOBk0ZyKCeOtfytZ4xx1oAbjJoIwa/ql28g5r+VonJoAKOtGKUDB5oASiv6pgfwpc+4oA/lYoHWv6pycd6TOR1/KgBR0pa/lZ69qT8KAEAyaMH0r+qZuh5x9K/lbzxjt60ANxQRg1/VLgnBr+VonJoA/qnJwMmjIoJ461/K1nt79aAP6pcjr2r+VgjBr+qUj1NKvQc/nQApOBRkEV/KyDz0r+qQDv+hoA/lb9a/qm600jJ61/K2Tz0oAQDJowQa/qmboecfSv5WyePoaAP6pR2r+Viv6pxX8rFAH9VFFFFABRRRQAUUUUANY880L0HH50pGa/lYJyaAAcnrTscZzTQcV/VOBigD+Vn8aPxr+qeigD+Vgcnr+df1Sd+hr+VoHBozk0AO79aTHvX9Uw6UtAH8rA5PWlPPOe9NBxX9U2MZoATdyBiv5WiMGjODQTk0Af1TkcdK/la7Z9e1f1SkZGDRjAoA/laxmkIwetGa/qmAwKAP5WMkV/VMePev5Wa/qn65oA/lbAB/Ov6ox06UuK/lY60Af1Tnp600cnFOIzX8rBNAH9UxJBxX8rJGDQDignJoAX8aXqeTmv6pqKAG9fav5WSSa/qn6Yr+VigAoJJoooAcvTNf1SDkdPzr+VkEignJoA/qnPNJtr+VmigD+qYkg9M1/K0QPWkFf1T9KAFooooAKKKKACiiigBCQOtAORSMuT17V/K1kelAH9U9FfysfhR+FAH9U9FfysfhR+FAH9U9FfysfhS9DyMUAf1S5HXtX8rBGDX9U23NKAQAM0AfysAZr+qcEV/KwOtO9sfjQB/VLkde1fysEYNf1S7c96UcADNAH8rNf1T96/lYwTX9U4NAB3r+Viv6pt3Nfys4oA/qoor+VjPtQeO1AH9UxOKAcjIr+VoHjGMV/VKvSgD+Vigda/qnz7ikJoAXOK/lYIwa/qm25pQCABmgAJxX8rOK/qmPT0poHPfmgBc4xX8rJGKdntimk5NAH9U5OBk0ZFDdK/layMfTvQB/VL1xX8rFf1TLX8rNAH9U5OBk0ZyKCMiv5WgRjFADT1opT1pMUAf1UUUUUAFFFFABRRRQAnev5WK/qn71/KxQB/VOeB0pAcnGKUjNfysE0Af1T49hRj2FfysUUAf1T4Br+VnNf1T1/Kv6UAf1TjpS0g6UtAH8rAHPWv6pASc07rX8rBNADsZyaQjB60ZPWv6pgMCgBG6Hj8qQc5xX8rQODX9U+MZoA/laHTtxX9Ug5HT86/lZyQaCcmgABxX9U3T3r+Vmv6pz3oAaTzjFOHT0r+VnNf1TAYoA/lZ/GjHvX9U9IelAAOlFfysHrRQB/VO3TpX8rRGO9N6V/VP3oA/laxkZzTSMGv6pyM1/KwTmgD+qc80m2v5WaKAP6piSDiv5WSMGgHFBOTQB/VOSQOlfytFQO/wCdN6V/VPjrQA3PPTr604cjpX8rOa/qmAxQAtFFFABRRRQAUUUUAJ3r+Viv6p+9fysUAf1UV/Kv2r+qcnFfyskUAJRRijFAH9VFfyr+lf1UV/Kv6UAf1T5xiv5WCMGv6piucUoBAAzQAE4GTRnIoJ461/K1kAY9+tACYJNIRg04HI/qa/qkXp1/OgD+Vmv6p+9fysYJr+qcHNAASB1oByKRlyevav5Wsj0oASgda/qnz7ikP1oAXOBQDkZFfytZ7Yr+qVelAH8rAGa/qmznNfysjg9Kdntj9KAE9a/qm600jnrX8rZPPSgBK/qnPev5WK/qnPegD+Vj1r+qiv5WMV/VNkGgD+VgDJr+qcHNBBIIzSBcGgBe9fysV/VOTiv5WCCKAP6qK/lX64r+qfNfytYxQA3FBGDX9Upz1/Sv5WyOen5UAf1T0UUUAFFFFABRRRQAnev5WK/qn71/KxQB/VOeaAMV/KxRQB/VPj2FGPYV/KxRQB/VOSQM4zX8rJGMH3pAcGjJJoA/qnHSlpB0paAP5V80ud3WkoHWgBwGBkHvSHg9a/qmxmv5WCc0Af1TkcdKRTzjFKRmv5WCaAP6pixB6V/K0QPWkFf1T9KAP5WByetOxjnPfpTQcV/VOAKAGk05eg4xRgdO1fysE5NAH9Ux4BOKAc54r+VkHBr+qfGM0Afys561/VNiv5WPWv6qKAP5V6/qnJr+Viv6p+uaAP5Whxkg96Q8HrX9UxAr+VgnNAH9U9FfysUUAf1TkZ7UAY7V/KxRQAo69a/qkB5704jIowAKAExnrSgY7V/KwetFAH9VFFFFABRRRQAUUUUAFFFFABRRRQAUUUUAFFFFABRRRQAUUUUAFFFFABRRRQAUUUUAFFFFABRRRQAUUUUAFFFFABRRRQAUUUUAFFFFABRRRQAUUUUAFFFFABRRRQAUUUUAFFFFABRRRQAUUUUAFFFFABRRRQAUUUUAFFFFABRRRQAUUUUAFFFFABRRRQAUUUUAFFFFABRRRQAUUUUAFFFFABRRRQAUUUUAFFFFABRRRQAUUUUAFFFFAH//2Q==;" vertex="1" parent="1">
          <mxGeometry x="-728" y="95" width="307.5" height="307.5" as="geometry" />
        </mxCell>
        <mxCell id="XABMTuyTcETFJIN-x9gi-2" value="&lt;font face=&quot;Verdana&quot; style=&quot;font-size: 47px;&quot; color=&quot;#ffffff&quot;&gt;关注回复&lt;/font&gt;" style="text;html=1;strokeColor=none;fillColor=none;align=center;verticalAlign=middle;whiteSpace=wrap;rounded=0;" vertex="1" parent="1">
          <mxGeometry x="-328" y="150" width="235" height="30" as="geometry" />
        </mxCell>
        <mxCell id="XABMTuyTcETFJIN-x9gi-4" value="&lt;font face=&quot;Verdana&quot; style=&quot;font-size: 47px;&quot; color=&quot;#ffffff&quot;&gt;&lt;b&gt;「 面试 」&lt;/b&gt;&lt;/font&gt;" style="text;html=1;strokeColor=none;fillColor=none;align=center;verticalAlign=middle;whiteSpace=wrap;rounded=0;" vertex="1" parent="1">
          <mxGeometry x="-328" y="223" width="235" height="30" as="geometry" />
        </mxCell>
        <mxCell id="XABMTuyTcETFJIN-x9gi-5" value="&lt;font face=&quot;Verdana&quot; style=&quot;font-size: 47px;&quot; color=&quot;#ffffff&quot;&gt;获得学习资料&lt;/font&gt;" style="text;html=1;strokeColor=none;fillColor=none;align=center;verticalAlign=middle;whiteSpace=wrap;rounded=0;" vertex="1" parent="1">
          <mxGeometry x="-360" y="296" width="306" height="30" as="geometry" />
        </mxCell>
        <mxCell id="XABMTuyTcETFJIN-x9gi-6" value="" style="shape=image;verticalLabelPosition=bottom;labelBackgroundColor=default;verticalAlign=top;aspect=fixed;imageAspect=0;image=data:image/svg+xml,PHN2ZyB4bWxuczp4bGluaz0iaHR0cDovL3d3dy53My5vcmcvMTk5OS94bGluayIgeG1sbnM9Imh0dHA6Ly93d3cudzMub3JnLzIwMDAvc3ZnIiBoZWlnaHQ9IjEyOCIgd2lkdGg9IjEyOCIgdmVyc2lvbj0iMS4xIiB2aWV3Qm94PSIwIDAgMTAyNCAxMDI0IiBjbGFzcz0iaWNvbiI+PHBhdGggZmlsbD0iI2ZmZmZmZiIgZD0iTTYwMy42IDYwOS4wOWw4NS4yNSAxODIuODJjNC43OSAxMC4yNyAwLjM0IDIyLjQ3LTkuOTIgMjcuMjZsLTc0LjM2IDM0LjY3Yy0xMC4yNyA0Ljc5LTIyLjQ3IDAuMzUtMjcuMjYtOS45MmwtODcuMTktMTg2Ljk4LTEwNy4yIDEwNy4yYy04LjAxIDguMDEtMjAuOTkgOC4wMS0yOSAwLjAxYTIwLjUyIDIwLjUyIDAgMCAxLTYuMDEtMTQuNTFWMjMwLjE5YzAtMTEuMzMgOS4xOC0yMC41MSAyMC41MS0yMC41MSA1LjEgMCAxMC4wMiAxLjkgMTMuOCA1LjMzbDM4MS43NSAzNDcuMDVjOC4zOCA3LjYyIDkgMjAuNTkgMS4zOCAyOC45N2EyMC41MTcgMjAuNTE3IDAgMCAxLTEzLjYgNi42NUw2MDMuNiA2MDkuMDl6Ii8+PC9zdmc+;" vertex="1" parent="1">
          <mxGeometry x="-122" y="202.97" width="70.07" height="70.07" as="geometry" />
        </mxCell>
      </root>
    </mxGraphModel>
  </diagram>
</mxfile>
